<svg width="24" height="24" viewBox="0 0 24 24" fill="none" xmlns="http://www.w3.org/2000/svg">
<g clip-path="url(#clip0_7_644)">
<path d="M18.0666 17.7956L17.0874 15.8372L16.1083 17.7956H18.0666Z" fill="url(#paint0_linear_7_644)"/>
<path d="M21.8915 10.1749H20.8953V8.06727C20.8953 7.96896 20.8747 7.87173 20.8348 7.78187C20.7949 7.69202 20.7366 7.61153 20.6636 7.54561C20.5907 7.47969 20.5047 7.42981 20.4113 7.39917C20.3179 7.36854 20.219 7.35783 20.1212 7.36776C20.0093 7.3791 17.5016 7.6627 16.2531 10.1749H15.2314V11.7166C15.2314 13.6546 13.6546 15.2313 11.7166 15.2313H10.175V21.8915C10.175 23.0541 11.1209 23.9999 12.2834 23.9999H21.8915C23.0541 24 24 23.0541 24 21.8915V12.2834C24 11.1208 23.0541 10.1749 21.8915 10.1749ZM13.6361 19.5955L16.4585 13.9506C16.5169 13.8337 16.6067 13.7355 16.7178 13.6668C16.8288 13.5982 16.9568 13.5618 17.0874 13.5618C17.218 13.5618 17.346 13.5982 17.4571 13.6668C17.5682 13.7355 17.658 13.8337 17.7164 13.9506L20.5388 19.5955C20.7125 19.9428 20.5717 20.3651 20.2244 20.5388C19.8771 20.7126 19.4547 20.5717 19.281 20.2244L18.7698 19.2019H15.4052L14.8939 20.2244C14.7707 20.4708 14.5224 20.6132 14.2645 20.6132C14.1588 20.6132 14.0515 20.5893 13.9506 20.5388C13.6032 20.3652 13.4624 19.9428 13.6361 19.5955ZM7.57879 5.92218H6.24628C6.33328 6.61879 6.55626 7.20449 6.91256 7.67643C7.26881 7.20449 7.49179 6.61879 7.57879 5.92218Z" fill="url(#paint1_linear_7_644)"/>
<path d="M11.7166 13.8251C12.8792 13.8251 13.8251 12.8792 13.8251 11.7166V2.10854C13.8251 0.945896 12.8792 5.84815e-06 11.7166 5.84815e-06H2.10853C0.945891 5.84815e-06 0 0.945896 0 2.10854V11.7166C0 12.8792 0.945891 13.8251 2.10848 13.8251H3.10467V15.9327C3.10467 16.031 3.1253 16.1283 3.16521 16.2181C3.20512 16.308 3.26343 16.3885 3.33638 16.4544C3.40933 16.5203 3.49529 16.5702 3.58871 16.6008C3.68214 16.6315 3.78095 16.6422 3.87877 16.6322C3.9907 16.6209 6.49842 16.3373 7.74694 13.8251H11.7166ZM7.28728 9.79093C7.15915 9.72245 7.03412 9.64831 6.91256 9.56874C6.79101 9.64832 6.66598 9.72246 6.53784 9.79093C5.33813 10.4308 4.14052 10.4381 4.09013 10.4381C3.70181 10.4381 3.387 10.1233 3.387 9.735C3.387 9.34669 3.70181 9.03188 4.09013 9.03188C4.09631 9.03183 4.96383 9.01922 5.82703 8.57569C5.33316 7.94325 4.94391 7.08511 4.83145 5.92219H4.09008C3.70177 5.92219 3.38695 5.60738 3.38695 5.21907C3.38695 4.83076 3.70177 4.51594 4.09008 4.51594H6.20944V4.09008C6.20944 3.70177 6.52425 3.38696 6.91256 3.38696C7.30088 3.38696 7.61569 3.70177 7.61569 4.09008V4.51594H9.735C10.1233 4.51594 10.4381 4.83076 10.4381 5.21907C10.4381 5.60738 10.1233 5.92219 9.735 5.92219H8.99372C8.88122 7.08511 8.49202 7.94325 7.99814 8.57569C8.8613 9.01922 9.72895 9.03179 9.73791 9.03188C10.1262 9.03188 10.4396 9.34669 10.4396 9.735C10.4396 10.1233 10.1233 10.4381 9.735 10.4381C9.68461 10.4381 8.487 10.4308 7.28728 9.79093ZM17.1407 4.02277C17.278 4.16007 17.458 4.22874 17.6379 4.22874C17.8178 4.22874 17.9978 4.16011 18.135 4.02277C18.4096 3.74818 18.4096 3.30301 18.135 3.02841L17.9332 2.82657C20.5211 2.9799 22.5797 5.13352 22.5797 7.75927C22.5797 8.14758 22.8945 8.4624 23.2828 8.4624C23.6711 8.4624 23.9859 8.14758 23.9859 7.75927C23.9859 4.35272 21.2886 1.56469 17.9176 1.41774L18.135 1.20029C18.4096 0.925693 18.4096 0.480521 18.135 0.205928C17.8605 -0.0686191 17.4153 -0.068666 17.1407 0.205928L15.7295 1.61719C15.4549 1.89179 15.4549 2.33696 15.7295 2.61155L17.1407 4.02277ZM6.84525 19.9632C6.5707 19.6886 6.12548 19.6886 5.85089 19.9632C5.5763 20.2378 5.5763 20.6829 5.85089 20.9575L6.05273 21.1594C3.46481 21.0061 1.40625 18.8524 1.40625 16.2267C1.40625 15.8384 1.09144 15.5236 0.703125 15.5236C0.314813 15.5236 0 15.8384 0 16.2267C0 19.6332 2.69733 22.4213 6.06834 22.5682L5.85089 22.7857C5.5763 23.0603 5.5763 23.5054 5.85089 23.78C5.98819 23.9173 6.16814 23.9859 6.34805 23.9859C6.52795 23.9859 6.70795 23.9173 6.8452 23.78L8.25642 22.3688C8.53102 22.0942 8.53102 21.649 8.25642 21.3744L6.84525 19.9632Z" fill="url(#paint2_linear_7_644)"/>
</g>
<defs>
<linearGradient id="paint0_linear_7_644" x1="16.1089" y1="16.8139" x2="18.072" y2="16.8139" gradientUnits="userSpaceOnUse">
<stop stop-color="#E88B2A"/>
<stop offset="0.7318" stop-color="#E26730"/>
<stop offset="1" stop-color="#DF5832"/>
</linearGradient>
<linearGradient id="paint1_linear_7_644" x1="6.25208" y1="14.9381" x2="24.0492" y2="14.9381" gradientUnits="userSpaceOnUse">
<stop stop-color="#E88B2A"/>
<stop offset="0.7318" stop-color="#E26730"/>
<stop offset="1" stop-color="#DF5832"/>
</linearGradient>
<linearGradient id="paint2_linear_7_644" x1="0.00784156" y1="11.9625" x2="24.0524" y2="11.9625" gradientUnits="userSpaceOnUse">
<stop stop-color="#E88B2A"/>
<stop offset="0.7318" stop-color="#E26730"/>
<stop offset="1" stop-color="#DF5832"/>
</linearGradient>
<clipPath id="clip0_7_644">
<rect width="24" height="24" fill="white"/>
</clipPath>
</defs>
</svg>
