<svg width="183" height="40" viewBox="0 0 183 40" fill="none" xmlns="http://www.w3.org/2000/svg">
<g clip-path="url(#clip0_7_630)">
<path d="M90.9585 17.5135C92.2579 16.1081 93.7738 15.5676 95.6147 15.6757C97.9969 15.8919 99.5129 17.6216 99.6212 20.1081C99.7295 22.4865 99.6212 24.973 99.6212 27.3514C99.6212 28.1081 99.0799 28.5406 98.3218 28.5406C97.5638 28.5406 97.1307 28.1081 97.1307 27.2433C97.1307 25.0811 97.1307 23.027 97.1307 20.8649C97.1307 20.4324 97.1306 20.1081 97.0224 19.6757C96.6975 18.3784 95.8313 17.7297 94.4236 17.7297C93.1242 17.7297 92.0414 18.5946 91.7165 19.8919C91.6083 20.2162 91.6082 20.5406 91.6082 20.8649C91.6082 23.027 91.6082 25.1892 91.6082 27.2433C91.6082 27.8919 91.2833 28.3243 90.7419 28.4324C90.0922 28.5406 89.5508 28.3243 89.3342 27.7838C89.2259 27.5676 89.2259 27.3514 89.2259 27.1351C89.2259 24.973 89.2259 22.9189 89.2259 20.8649C89.2259 20.6487 89.2259 20.3243 89.2259 20.1081C89.0093 18.5946 88.1431 17.8379 86.7354 17.8379C85.3277 17.8379 84.1366 18.7027 83.92 20.1081C83.8117 20.4324 83.8117 20.8649 83.8117 21.1892C83.8117 23.2433 83.8117 25.2973 83.8117 27.3514C83.8117 28.2162 83.3786 28.6487 82.6206 28.6487C81.8626 28.6487 81.4296 28.2162 81.4296 27.2433C81.4296 23.8919 81.4296 20.5406 81.4296 17.1892C81.4296 16.3243 81.7543 15.8919 82.404 15.7838C83.162 15.6757 83.5951 16 83.92 16.8649C85.0028 16 86.194 15.5676 87.4934 15.6757C89.0093 15.7838 90.0922 16.3243 90.9585 17.5135Z" fill="white"/>
<path d="M72.3338 28.8649C70.0598 28.8649 68.0024 28.1081 66.4865 26.3784C66.1616 26.0541 65.945 25.6216 65.7285 25.1892C65.4036 24.3243 65.8368 23.5676 66.8113 23.5676C67.2445 23.5676 67.6776 23.7838 67.8942 24.2162C68.6521 25.7297 70.0598 26.2703 71.5758 26.4865C72.5504 26.5946 73.6332 26.4865 74.6078 26.1622C75.6906 25.7297 76.4486 24.973 76.5569 23.7838C76.6652 22.4865 76.0155 21.5135 74.9326 20.8649C74.0664 20.3243 73.0918 20.2162 72.1172 20.1081C70.6013 19.8919 69.1936 19.4595 67.8942 18.4865C65.1871 16.3243 65.6202 12.4324 68.6521 10.9189C70.6013 9.94591 72.5504 9.8378 74.6078 10.2702C76.3403 10.7027 77.5314 11.7838 78.3977 13.2973C78.8308 13.9459 78.6143 14.5946 78.0729 14.9189C77.5314 15.2432 76.7734 15.027 76.4486 14.4865C75.0409 12 72.2255 11.8919 70.2764 12.6486C69.1936 12.973 68.5439 13.6216 68.4356 14.9189C68.4356 16.1081 68.977 16.8649 70.0598 17.4054C71.0344 17.8378 72.009 17.9459 73.0918 18.1622C73.9581 18.2703 74.8243 18.4865 75.5823 18.8108C77.748 19.6757 78.9391 21.5135 78.9391 23.6757C78.8308 25.9459 77.6397 27.5676 75.474 28.4324C74.3912 28.6486 73.4166 28.8649 72.3338 28.8649Z" fill="white"/>
<path d="M126.692 16.7568C127.125 16.2162 127.667 16.2162 128.317 16.2162C128.641 16.2162 128.858 16.1081 128.75 15.7838C128.75 14.9189 128.75 13.946 128.75 13.0811C128.75 12.2162 129.183 11.7838 129.941 11.7838C130.699 11.7838 131.132 12.3244 131.132 13.1892C131.132 14.0541 131.132 15.0271 131.132 15.8919C131.132 16.2162 131.24 16.3244 131.565 16.3244C132.106 16.3244 132.756 16.3244 133.298 16.3244C133.947 16.4325 134.164 16.7568 134.272 17.2973C134.272 17.8379 133.947 18.2703 133.406 18.2703C132.864 18.3784 132.215 18.2703 131.673 18.2703C131.349 18.2703 131.24 18.3784 131.24 18.7027C131.24 20.4325 131.24 22.2703 131.24 24C131.24 24.5406 131.349 25.0811 131.782 25.6217C132.323 26.2703 132.973 26.2703 133.731 26.2703C134.705 26.1622 135.138 27.2433 134.814 28C134.597 28.4325 134.164 28.5406 133.731 28.6487C131.349 28.973 129.291 27.2433 128.966 24.8649C128.966 24.5406 128.858 24.1081 128.858 23.7838C128.858 22.1622 128.858 20.6487 128.858 19.0271C128.858 18.2703 128.858 18.2703 128.1 18.2703C127.45 18.2703 126.909 18.1622 126.584 17.4054C126.259 17.946 125.826 17.946 125.285 17.8379C124.418 17.6217 123.444 17.6217 122.469 17.8379C120.845 18.1622 119.979 19.2433 119.979 20.8649C119.979 23.0271 119.979 25.0811 119.979 27.2433C119.979 28.1081 119.654 28.5406 118.788 28.5406C117.921 28.5406 117.596 28.1081 117.596 27.2433C117.596 23.7838 117.596 20.4325 117.596 16.973C117.596 16 118.246 15.5676 119.112 15.6757C119.654 15.7838 119.87 16.1081 119.979 16.6487C119.979 16.7568 119.87 16.973 120.087 17.1892C120.953 16.3244 122.036 15.6757 123.335 15.6757C124.635 15.5676 125.826 15.5676 126.692 16.7568Z" fill="white"/>
<path d="M112.615 26.7027C112.291 27.027 112.074 27.2432 111.857 27.4595C108.284 30.3784 103.195 28.4324 102.22 23.8919C101.462 20.4324 103.195 17.2973 106.335 16.1081C110.558 14.5946 114.889 17.5135 114.998 21.9459C115.106 23.7838 114.998 25.6216 114.998 27.4595C114.998 28.2162 114.456 28.7568 113.807 28.6486C113.049 28.6486 112.615 28.2162 112.615 27.3513C112.615 27.1351 112.615 27.027 112.615 26.7027ZM112.615 22.2703C112.615 22.1622 112.615 22.0541 112.615 22.0541C112.507 19.5676 110.775 17.7297 108.284 17.8378C106.443 17.9459 105.144 18.9189 104.602 20.6486C103.953 22.4865 104.278 24.1081 105.685 25.5135C106.985 26.7027 108.501 27.027 110.125 26.2703C111.857 25.5135 112.615 24.1081 112.615 22.2703Z" fill="white"/>
<path d="M174.662 20.973C175.962 19.7838 177.153 18.7027 178.344 17.7298C178.994 17.1892 179.643 16.5406 180.293 16C180.834 15.5676 181.376 15.5676 181.809 16C182.242 16.5406 182.242 17.0811 181.701 17.6216C180.401 18.8108 179.102 19.8919 177.802 21.0811C177.478 21.2973 177.478 21.5135 177.694 21.8379C179.102 23.5676 180.509 25.1892 181.917 26.9189C182.242 27.3514 182.35 27.8919 182.025 28.3243C181.701 28.7568 181.267 28.973 180.726 28.8649C180.401 28.7568 180.185 28.6487 180.076 28.3243C178.777 26.7027 177.369 24.973 176.07 23.3514C175.853 23.0271 175.745 22.9189 175.312 23.2433C174.77 23.6757 174.446 24.2162 174.554 24.973C174.662 25.8379 174.554 26.7027 174.554 27.4595C174.554 28.2162 174.121 28.6487 173.471 28.6487C172.821 28.6487 172.28 28.2162 172.28 27.5676C172.28 27.4595 172.28 27.2433 172.28 27.1352C172.28 22.0541 172.28 17.0811 172.28 12C172.28 11.7838 172.28 11.5676 172.28 11.3514C172.388 10.7027 172.821 10.3784 173.471 10.4865C174.121 10.4865 174.554 10.9189 174.554 11.5676C174.554 12.3243 174.554 13.0811 174.554 13.8379C174.662 16 174.662 18.3784 174.662 20.973Z" fill="white"/>
<path d="M159.719 17.1892C161.343 15.7838 163.184 15.4595 165.133 15.8919C167.407 16.4324 169.031 18.1622 169.248 20.4324C169.464 22.8108 169.356 25.1892 169.356 27.5676C169.356 28.2162 168.815 28.6486 168.165 28.6486C167.515 28.6486 166.974 28.2162 166.974 27.4595C166.974 26.9189 166.974 26.2703 166.974 25.7297C166.974 24.3243 166.974 22.9189 166.974 21.5135C166.974 20.1081 166.541 18.9189 165.241 18.2703C163.834 17.6216 162.426 17.6216 161.127 18.4865C160.26 19.027 159.827 19.8919 159.827 20.973C159.827 23.027 159.827 25.1892 159.827 27.2432C159.827 28.1081 159.394 28.5405 158.636 28.6486C157.878 28.6486 157.337 28.2162 157.337 27.3513C157.337 24 157.337 20.6486 157.337 17.1892C157.337 16.3243 157.77 15.7838 158.528 15.7838C159.177 15.7838 159.611 16.2162 159.719 17.1892Z" fill="white"/>
<path d="M136.979 19.3513C136.979 16.8649 136.979 14.2703 136.979 11.7838C136.979 11.3513 136.979 11.027 137.304 10.7027C137.629 10.2703 138.17 10.1622 138.604 10.3784C139.145 10.5946 139.362 10.9189 139.362 11.4595C139.362 12.7568 139.362 13.9459 139.362 15.2432C139.362 18.7027 139.362 22.1622 139.362 25.6216C139.362 26.054 139.47 26.1622 139.903 26.1622C142.502 26.1622 145.101 26.1622 147.699 26.1622C148.566 26.1622 149.107 26.5946 149.107 27.3513C149.107 28.1081 148.566 28.5405 147.699 28.5405C144.559 28.5405 141.527 28.5405 138.387 28.5405C137.412 28.5405 136.979 28.1081 136.979 27.1351C136.979 24.5405 136.979 21.9459 136.979 19.3513Z" fill="white"/>
<path d="M151.273 22.1622C151.273 20.4325 151.273 18.8108 151.273 17.0811C151.273 16.3244 151.706 15.7838 152.464 15.7838C153.222 15.7838 153.655 16.2162 153.655 17.0811C153.655 20.5406 153.655 23.8919 153.655 27.3514C153.655 28.1081 153.222 28.6487 152.464 28.6487C151.706 28.6487 151.273 28.1081 151.273 27.3514C151.273 25.6216 151.273 23.8919 151.273 22.1622Z" fill="white"/>
<path d="M20.574 39.027C15.0515 39.027 9.96213 36.8649 6.06391 32.973C2.16568 29.0811 0 23.8919 0 18.4865C0 15.5676 2.38225 13.1892 5.30592 13.1892C8.22959 13.1892 10.6118 15.5676 10.6118 18.4865C10.6118 24 15.0515 28.4325 20.574 28.4325C26.0964 28.4325 30.5361 24 30.5361 18.4865C30.5361 15.5676 32.9183 13.1892 35.842 13.1892C38.7657 13.1892 41.1479 15.5676 41.1479 18.4865C41.1479 29.7297 31.9438 39.027 20.574 39.027ZM5.30592 14.8108C3.24852 14.8108 1.62426 16.4325 1.62426 18.4865C1.62426 23.5676 3.57337 28.2162 7.14675 31.8919C10.7201 35.4595 15.4846 37.4054 20.574 37.4054C30.9692 37.4054 39.5237 28.973 39.5237 18.4865C39.5237 16.4325 37.8994 14.8108 35.842 14.8108C33.7846 14.8108 32.1604 16.4325 32.1604 18.4865C32.1604 24.8649 26.9627 30.0541 20.574 30.0541C14.1852 30.0541 8.98757 24.8649 8.98757 18.4865C8.98757 16.4325 7.36331 14.8108 5.30592 14.8108Z" fill="white"/>
<path d="M16.2426 19.6757C16.2426 8.75676 25.1219 0 35.9503 0C46.887 0 55.658 8.86487 55.658 19.6757C55.658 22.1622 53.7089 24.1081 51.2184 24.1081C48.7278 24.1081 46.7787 22.1622 46.7787 19.6757C46.7787 13.7297 41.9059 8.86486 35.9503 8.86486C29.9947 8.86486 25.1219 13.7297 25.1219 19.6757C25.1219 22.1622 23.1728 24.1081 20.6823 24.1081C18.1917 24.1081 16.2426 22.1622 16.2426 19.6757Z" fill="url(#paint0_linear_7_630)"/>
<path d="M152.464 13.8379C153.361 13.8379 154.088 13.1118 154.088 12.2162C154.088 11.3207 153.361 10.5946 152.464 10.5946C151.567 10.5946 150.84 11.3207 150.84 12.2162C150.84 13.1118 151.567 13.8379 152.464 13.8379Z" fill="url(#paint1_linear_7_630)"/>
</g>
<defs>
<linearGradient id="paint0_linear_7_630" x1="16.2555" y1="12.0235" x2="55.7672" y2="12.0235" gradientUnits="userSpaceOnUse">
<stop stop-color="#E88B2A"/>
<stop offset="0.7318" stop-color="#E26730"/>
<stop offset="1" stop-color="#DF5832"/>
</linearGradient>
<linearGradient id="paint1_linear_7_630" x1="150.867" y1="12.1678" x2="154.021" y2="12.1678" gradientUnits="userSpaceOnUse">
<stop stop-color="#E88B2A"/>
<stop offset="0.7318" stop-color="#E26730"/>
<stop offset="1" stop-color="#DF5832"/>
</linearGradient>
<clipPath id="clip0_7_630">
<rect width="183" height="40" fill="white"/>
</clipPath>
</defs>
</svg>
