<svg width="207" height="231" viewBox="0 0 207 231" fill="none" xmlns="http://www.w3.org/2000/svg">
<path d="M57.2829 182.87C63.0762 195.732 73.4271 205.326 86.5381 210.341C99.649 215.356 113.95 214.981 126.48 209.337C133.246 206.29 136.26 198.258 133.193 191.449C130.126 184.64 122.114 181.576 115.347 184.624C102.567 190.38 87.6349 184.669 81.8416 171.808C76.0483 158.947 81.6655 143.979 94.4461 138.222C101.212 135.174 104.226 127.143 101.159 120.334C98.0923 113.525 90.08 110.461 83.3139 113.508C57.2516 125.248 45.3556 156.391 57.2829 182.87ZM129.434 193.142C131.592 197.934 129.537 203.41 124.776 205.555C112.998 210.86 100.177 211.175 87.9081 206.691C75.8898 202.094 66.3808 193.03 61.0419 181.177C50.1369 156.968 60.7097 128.241 85.0178 117.291C89.7792 115.146 95.2421 117.236 97.4003 122.027C99.5586 126.819 97.5036 132.295 92.7422 134.439C77.9568 141.099 71.3806 158.622 78.0827 173.501C84.7847 188.38 102.266 195.066 117.051 188.406C121.813 186.262 127.276 188.351 129.434 193.142Z" fill="white"/>
<path d="M149.214 50.0208C143.757 37.0135 133.659 27.153 120.682 21.7995C107.706 16.446 93.4003 16.4492 80.7281 21.7661C73.8851 24.6372 70.6634 32.5876 73.5527 39.4738C76.4419 46.3601 84.3719 49.6317 91.2149 46.7606C104.141 41.3374 118.919 47.4345 124.377 60.4418C129.834 73.4491 123.83 88.2658 110.904 93.689C104.061 96.5601 100.84 104.511 103.729 111.397C106.618 118.283 114.548 121.555 121.391 118.684C147.75 107.624 160.45 76.8006 149.214 50.0208ZM77.3544 37.8788C75.3212 33.0329 77.5178 27.6121 82.3332 25.5917C94.2451 20.5939 107.069 20.6123 119.218 25.4133C131.113 30.3207 140.383 39.6287 145.413 51.6159C155.685 76.1003 144.37 104.543 119.786 114.858C114.971 116.878 109.564 114.648 107.531 109.802C105.498 104.956 107.694 99.5351 112.51 97.5147C127.463 91.2408 134.492 73.8945 128.178 58.8468C121.865 43.799 104.563 36.661 89.6098 42.9349C84.7943 44.9553 79.3875 42.7246 77.3544 37.8788Z" fill="white"/>
</svg>
