<svg width="25" height="24" viewBox="0 0 25 24" fill="none" xmlns="http://www.w3.org/2000/svg">
<path d="M13.42 2.25984L19.93 5.76984C20.69 6.17984 20.69 7.34984 19.93 7.75984L13.42 11.2698C12.84 11.5798 12.16 11.5798 11.58 11.2698L5.07 7.75984C4.31 7.34984 4.31 6.17984 5.07 5.76984L11.58 2.25984C12.16 1.94984 12.84 1.94984 13.42 2.25984Z" stroke="white" stroke-width="1.5" stroke-linecap="round" stroke-linejoin="round"/>
<path d="M4.11 10.1302L10.16 13.1602C10.91 13.5402 11.39 14.3102 11.39 15.1502V20.8702C11.39 21.7002 10.52 22.2302 9.78 21.8602L3.73 18.8302C2.98 18.4502 2.5 17.6802 2.5 16.8402V11.1202C2.5 10.2902 3.37 9.76017 4.11 10.1302Z" stroke="white" stroke-width="1.5" stroke-linecap="round" stroke-linejoin="round"/>
<path d="M20.8899 10.1302L14.8399 13.1602C14.0899 13.5402 13.6099 14.3102 13.6099 15.1502V20.8702C13.6099 21.7002 14.4799 22.2302 15.2199 21.8602L21.2699 18.8302C22.0199 18.4502 22.4999 17.6802 22.4999 16.8402V11.1202C22.4999 10.2902 21.6299 9.76017 20.8899 10.1302Z" stroke="white" stroke-width="1.5" stroke-linecap="round" stroke-linejoin="round"/>
</svg>
