<svg width="49" height="38" viewBox="0 0 49 38" fill="none" xmlns="http://www.w3.org/2000/svg">
<path d="M16.6498 32.2636C16.3994 32.2771 16.1514 32.2059 15.9431 32.0609C15.7348 31.9159 15.5777 31.7049 15.4955 31.4598L14.0649 27.1954C13.4488 25.3398 12.3828 23.6767 10.9688 22.3653C9.55485 21.0538 7.84023 20.1376 5.9888 19.7045L1.7325 18.6941C1.48808 18.6359 1.26837 18.4971 1.10658 18.2987C0.944802 18.1003 0.849742 17.8532 0.835777 17.5946C0.821813 17.336 0.889704 17.08 1.02918 16.8654C1.16866 16.6508 1.37215 16.4891 1.60889 16.4049L5.73162 14.9421C7.52563 14.312 9.13163 13.2166 10.3961 11.7605C11.6606 10.3044 12.5413 8.53618 12.9541 6.62497L13.9171 2.2313C13.9726 1.97898 14.1061 1.75249 14.2976 1.58604C14.489 1.4196 14.7279 1.32227 14.9782 1.30875C15.2284 1.29524 15.4764 1.36628 15.6847 1.51114C15.8929 1.65599 16.0501 1.86679 16.1324 2.11166L17.563 6.37608C18.1792 8.23172 19.2452 9.89476 20.6591 11.2062C22.0731 12.5177 23.7877 13.4338 25.6391 13.867L29.8954 14.8774C30.1398 14.9356 30.3595 15.0744 30.5213 15.2728C30.6831 15.4711 30.7782 15.7183 30.7921 15.9769C30.8061 16.2355 30.7382 16.4914 30.5987 16.7061C30.4593 16.9207 30.2558 17.0823 30.019 17.1665L25.8963 18.6294C24.1023 19.2595 22.4963 20.3549 21.2318 21.811C19.9673 23.2672 19.0866 25.0353 18.6739 26.9465L17.7108 31.3402C17.6555 31.5927 17.522 31.8194 17.3306 31.986C17.1391 32.1526 16.9002 32.25 16.6498 32.2636ZM6.1813 17.3059L6.49353 17.3814C8.72791 17.9043 10.7972 19.01 12.5036 20.5928C14.21 22.1756 15.4966 24.1826 16.2404 26.422L16.3466 26.7347L16.4186 26.4124C16.9168 24.1059 17.9798 21.972 19.5058 20.2146C21.0319 18.4573 22.97 17.1352 25.1351 16.3747L25.4374 16.2661L25.1252 16.1906C22.8908 15.6677 20.8215 14.562 19.1151 12.9792C17.4087 11.3964 16.1221 9.38945 15.3784 7.15L15.2765 6.83389L15.2046 7.1562C14.7063 9.46272 13.6434 11.5966 12.1173 13.3539C10.5913 15.1113 8.65309 16.4333 6.48802 17.1938L6.1813 17.3059Z" fill="#DF5832" fill-opacity="0.2"/>
<path d="M40.7755 36.5381C40.6334 36.5458 40.4925 36.5054 40.3742 36.423C40.2559 36.3407 40.1667 36.2208 40.12 36.0817L39.3076 33.66C38.9577 32.6062 38.3524 31.6618 37.5494 30.917C36.7465 30.1722 35.7727 29.652 34.7213 29.406L32.3043 28.8322C32.1655 28.7992 32.0407 28.7203 31.9488 28.6077C31.8569 28.495 31.803 28.3547 31.795 28.2078C31.7871 28.061 31.8257 27.9156 31.9049 27.7937C31.9841 27.6719 32.0996 27.5801 32.2341 27.5323L34.5753 26.7015C35.5941 26.3437 36.5061 25.7216 37.2242 24.8947C37.9423 24.0678 38.4424 23.0637 38.6768 21.9784L39.2237 19.4833C39.2552 19.34 39.331 19.2114 39.4398 19.1168C39.5485 19.0223 39.6841 18.967 39.8263 18.9594C39.9684 18.9517 40.1092 18.992 40.2275 19.0743C40.3457 19.1566 40.435 19.2763 40.4817 19.4153L41.2941 21.837C41.6441 22.8908 42.2494 23.8352 43.0524 24.58C43.8553 25.3248 44.829 25.845 45.8804 26.091L48.2975 26.6648C48.4363 26.6979 48.5611 26.7767 48.653 26.8893C48.7448 27.002 48.7988 27.1423 48.8067 27.2892C48.8147 27.436 48.7761 27.5814 48.6969 27.7033C48.6177 27.8251 48.5021 27.9169 48.3677 27.9648L46.0265 28.7955C45.0077 29.1533 44.0957 29.7754 43.3776 30.6023C42.6595 31.4292 42.1594 32.4333 41.925 33.5187L41.3781 36.0137C41.3467 36.1571 41.2709 36.2858 41.1621 36.3805C41.0534 36.4751 40.9177 36.5304 40.7755 36.5381ZM34.8307 28.0439L35.008 28.0868C36.2768 28.3837 37.4519 29.0116 38.421 29.9104C39.39 30.8093 40.1207 31.949 40.543 33.2208L40.6034 33.3983L40.6442 33.2153C40.9272 31.9055 41.5308 30.6937 42.3974 29.6957C43.2641 28.6977 44.3647 27.947 45.5942 27.5151L45.7659 27.4534L45.5886 27.4105C44.3197 27.1136 43.1446 26.4857 42.1755 25.5868C41.2065 24.688 40.4759 23.5483 40.0535 22.2765L39.9957 22.097L39.9548 22.28C39.6719 23.5899 39.0682 24.8017 38.2016 25.7996C37.335 26.7976 36.2344 27.5484 35.0049 27.9803L34.8307 28.0439Z" fill="#DF5832" fill-opacity="0.2"/>
</svg>
