<svg width="25" height="24" viewBox="0 0 25 24" fill="none" xmlns="http://www.w3.org/2000/svg">
<path d="M11.25 2.44995C11.95 1.85995 13.08 1.85995 13.76 2.44995L15.34 3.79995C15.64 4.04995 16.21 4.25995 16.61 4.25995H18.31C19.37 4.25995 20.24 5.12995 20.24 6.18995V7.88995C20.24 8.28995 20.45 8.84995 20.7 9.14995L22.05 10.7299C22.64 11.4299 22.64 12.5599 22.05 13.2399L20.7 14.8199C20.45 15.1199 20.24 15.6799 20.24 16.0799V17.7799C20.24 18.8399 19.37 19.7099 18.31 19.7099H16.61C16.21 19.7099 15.65 19.9199 15.35 20.1699L13.77 21.5199C13.07 22.1099 11.94 22.1099 11.26 21.5199L9.68001 20.1699C9.38001 19.9199 8.81 19.7099 8.42 19.7099H6.67C5.61 19.7099 4.74 18.8399 4.74 17.7799V16.0699C4.74 15.6799 4.54 15.1099 4.29 14.8199L2.94 13.2299C2.36 12.5399 2.36 11.4199 2.94 10.7299L4.29 9.13995C4.54 8.83995 4.74 8.27995 4.74 7.88995V6.19995C4.74 5.13995 5.61 4.26995 6.67 4.26995H8.4C8.8 4.26995 9.36 4.05995 9.66 3.80995L11.25 2.44995Z" stroke="white" stroke-width="1.5" stroke-linecap="round" stroke-linejoin="round"/>
<path d="M12.5 8.13V12.96" stroke="white" stroke-width="1.5" stroke-linecap="round" stroke-linejoin="round"/>
<path d="M12.4945 16H12.5035" stroke="white" stroke-width="2" stroke-linecap="round" stroke-linejoin="round"/>
</svg>
