<svg width="25" height="24" viewBox="0 0 25 24" fill="none" xmlns="http://www.w3.org/2000/svg">
<path d="M12.5 7.89001L11.43 9.75001C11.19 10.16 11.39 10.5 11.86 10.5H13.13C13.61 10.5 13.8 10.84 13.56 11.25L12.5 13.11" stroke="white" stroke-width="1.5" stroke-linecap="round" stroke-linejoin="round"/>
<path d="M8.79999 18.0401V16.8801C6.49999 15.4901 4.60999 12.7801 4.60999 9.90005C4.60999 4.95005 9.15999 1.07005 14.3 2.19005C16.56 2.69005 18.54 4.19005 19.57 6.26005C21.66 10.4601 19.46 14.9201 16.23 16.8701V18.0301C16.23 18.3201 16.34 18.9901 15.27 18.9901H9.75999C8.65999 19.0001 8.79999 18.5701 8.79999 18.0401Z" stroke="white" stroke-width="1.5" stroke-linecap="round" stroke-linejoin="round"/>
<path d="M9 22C11.29 21.35 13.71 21.35 16 22" stroke="white" stroke-width="1.5" stroke-linecap="round" stroke-linejoin="round"/>
</svg>
