<svg width="26" height="26" viewBox="0 0 26 26" fill="none" xmlns="http://www.w3.org/2000/svg">
<path d="M16.12 13.696V16.972C16.12 19.708 15.028 20.8 12.292 20.8H9.028C6.304 20.8 5.2 19.708 5.2 16.972V13.696C5.2 10.972 6.292 9.88 9.028 9.88H12.304C15.028 9.88 16.12 10.972 16.12 13.696Z" stroke="white" stroke-width="1.5" stroke-linecap="round" stroke-linejoin="round"/>
<path d="M20.8 9.016V12.292C20.8 15.028 19.708 16.12 16.972 16.12H16.12V13.696C16.12 10.972 15.028 9.88 12.292 9.88H9.88V9.016C9.88 6.28 10.972 5.2 13.708 5.2H16.984C19.708 5.2 20.8 6.292 20.8 9.016Z" stroke="white" stroke-width="1.5" stroke-linecap="round" stroke-linejoin="round"/>
<path d="M25 16.6C25 21.244 21.244 25 16.6 25L17.86 22.9" stroke="white" stroke-width="1.5" stroke-linecap="round" stroke-linejoin="round"/>
<path d="M1 9.4C1 4.756 4.756 1 9.4 1L8.14 3.1" stroke="white" stroke-width="1.5" stroke-linecap="round" stroke-linejoin="round"/>
</svg>
